# xmcd
#
# Track frame offsets:
#	150
#	12918
#	24094
#	34175
#	45003
#	55786
#	66962
#	76688
#	84173
#	94003
#	101804
#	110581
#	122064
#	133981
#	144093
#	154154
#	163229
#	174931
#	185093
#	197683
#
# Disc length: 2800 seconds
#
# Revision: 0
# Processed by: cddbd v1.5.2PL0 Copyright (c) Steve Scherf et al.
# Submitted via: EZCDAudioConverter 3.1.0.1
#
DISCID=f90aee14
DTITLE=Johnny Cash - Simply Johnny Cash
DYEAR=2014
DGENRE=Country and Folk
TTITLE0=Folsom Prison Blues
TTITLE1=Oh, Lonesome Me
TTITLE2=The Ways Of A Woman In Love
TTITLE3=Train Of Love
TTITLE4=I Heard That Lonesome Whistle Blow
TTITLE5=Mean Eyed Cat
TTITLE6=Rock Island Line
TTITLE7=Come In Stranger
TTITLE8=Ballad Of A Teenage Queen
TTITLE9=Hey, Good Lookin'
TTITLE10=Katy Too
TTITLE11=Port Of Lonely Hearts
TTITLE12=You're The Nearest Thing To Heaven
TTITLE13=I Was There When It Happened
TTITLE14=Goodbye, Little Darlin'
TTITLE15=Blue Train
TTITLE16=Doin' My Time
TTITLE17=Straight A's In Love
TTITLE18=Peace In The Valley (Live)
TTITLE19=Ring Of Fire (Live)
EXTD=
EXTT0=
EXTT1=
EXTT2=
EXTT3=
EXTT4=
EXTT5=
EXTT6=
EXTT7=
EXTT8=
EXTT9=
EXTT10=
EXTT11=
EXTT12=
EXTT13=
EXTT14=
EXTT15=
EXTT16=
EXTT17=
EXTT18=
EXTT19=
PLAYORDER=
